<svg width="40" height="40" viewBox="0 0 40 40" fill="none" xmlns="http://www.w3.org/2000/svg">
<path fill-rule="evenodd" clip-rule="evenodd" d="M20 30C25.5228 30 30 25.5228 30 20C30 14.4771 25.5228 10 20 10C14.4771 10 10 14.4771 10 20C10 25.5228 14.4771 30 20 30ZM20 26.6667C23.6818 26.6667 26.6667 23.6818 26.6667 20C26.6667 16.3181 23.6818 13.3333 20 13.3333C16.3181 13.3333 13.3333 16.3181 13.3333 20C13.3333 23.6818 16.3181 26.6667 20 26.6667Z" fill="#3555B8"/>
<path d="M30.0007 8.33337C29.0802 8.33337 28.334 9.07957 28.334 10C28.334 10.9205 29.0802 11.6667 30.0007 11.6667C30.9212 11.6667 31.6673 10.9205 31.6673 10C31.6673 9.07957 30.9212 8.33337 30.0007 8.33337Z" fill="#3555B8"/>
<path fill-rule="evenodd" clip-rule="evenodd" d="M2.75693 7.12679C1.66699 9.2659 1.66699 12.0662 1.66699 17.6667V22.3334C1.66699 27.9339 1.66699 30.7342 2.75693 32.8732C3.71566 34.7549 5.24546 36.2847 7.12709 37.2434C9.26621 38.3334 12.0665 38.3334 17.667 38.3334H22.3337C27.9342 38.3334 30.7345 38.3334 32.8735 37.2434C34.7552 36.2847 36.285 34.7549 37.2437 32.8732C38.3337 30.7342 38.3337 27.9339 38.3337 22.3334V17.6667C38.3337 12.0662 38.3337 9.2659 37.2437 7.12679C36.285 5.24515 34.7552 3.71535 32.8735 2.75662C30.7345 1.66669 27.9342 1.66669 22.3337 1.66669H17.667C12.0665 1.66669 9.26621 1.66669 7.12709 2.75662C5.24546 3.71535 3.71566 5.24515 2.75693 7.12679ZM22.3337 5.00002H17.667C14.8117 5.00002 12.8707 5.00262 11.3705 5.12519C9.90906 5.24459 9.16173 5.461 8.64039 5.72664C7.38598 6.3658 6.36611 7.38567 5.72694 8.64009C5.46131 9.16142 5.24489 9.90875 5.12549 11.3702C5.00293 12.8704 5.00033 14.8114 5.00033 17.6667V22.3334C5.00033 25.1887 5.00293 27.1295 5.12549 28.6299C5.24489 30.0914 5.46131 30.8387 5.72694 31.36C6.36611 32.6144 7.38598 33.6342 8.64039 34.2734C9.16173 34.539 9.90906 34.7555 11.3705 34.8749C12.8707 34.9974 14.8117 35 17.667 35H22.3337C25.189 35 27.1298 34.9974 28.6302 34.8749C30.0917 34.7555 30.839 34.539 31.3603 34.2734C32.6147 33.6342 33.6345 32.6144 34.2737 31.36C34.5393 30.8387 34.7558 30.0914 34.8752 28.6299C34.9977 27.1295 35.0003 25.1887 35.0003 22.3334V17.6667C35.0003 14.8114 34.9977 12.8704 34.8752 11.3702C34.7558 9.90875 34.5393 9.16142 34.2737 8.64009C33.6345 7.38567 32.6147 6.3658 31.3603 5.72664C30.839 5.461 30.0917 5.24459 28.6302 5.12519C27.1298 5.00262 25.189 5.00002 22.3337 5.00002Z" fill="#3555B8"/>
</svg>
