<svg width="40" height="40" viewBox="0 0 40 40" fill="none" xmlns="http://www.w3.org/2000/svg">
<path d="M10.834 13.3334C12.2147 13.3334 13.334 12.2141 13.334 10.8334C13.334 9.45266 12.2147 8.33337 10.834 8.33337C9.45327 8.33337 8.33398 9.45266 8.33398 10.8334C8.33398 12.2141 9.45327 13.3334 10.834 13.3334Z" fill="#3555B8"/>
<path d="M8.33398 16.6667C8.33398 15.7462 9.08018 15 10.0007 15H11.6673C12.5878 15 13.334 15.7462 13.334 16.6667V30C13.334 30.9205 12.5878 31.6667 11.6673 31.6667H10.0007C9.08018 31.6667 8.33398 30.9205 8.33398 30V16.6667Z" fill="#3555B8"/>
<path d="M18.3337 31.6667H20.0003C20.9208 31.6667 21.667 30.9205 21.667 30V22.5C21.667 20 26.667 18.3333 26.667 21.6667V30.0007C26.667 30.9212 27.4132 31.6667 28.3337 31.6667H30.0003C30.9208 31.6667 31.667 30.9205 31.667 30V20C31.667 16.6667 29.167 15 25.8337 15C22.5003 15 21.667 17.5 21.667 17.5V16.6667C21.667 15.7462 20.9208 15 20.0003 15H18.3337C17.4132 15 16.667 15.7462 16.667 16.6667V30C16.667 30.9205 17.4132 31.6667 18.3337 31.6667Z" fill="#3555B8"/>
<path fill-rule="evenodd" clip-rule="evenodd" d="M33.3337 1.66669C36.0952 1.66669 38.3337 3.90527 38.3337 6.66669V33.3334C38.3337 36.0949 36.0952 38.3334 33.3337 38.3334H6.66699C3.90558 38.3334 1.66699 36.0949 1.66699 33.3334V6.66669C1.66699 3.90527 3.90558 1.66669 6.66699 1.66669H33.3337ZM33.3337 5.00002C34.2542 5.00002 35.0003 5.74622 35.0003 6.66669V33.3334C35.0003 34.2539 34.2542 35 33.3337 35H6.66699C5.74653 35 5.00033 34.2539 5.00033 33.3334V6.66669C5.00033 5.74622 5.74653 5.00002 6.66699 5.00002H33.3337Z" fill="#3555B8"/>
</svg>
